<svg viewBox="0 0 25 25" xmlns="http://www.w3.org/2000/svg">
<path fill="currentColor" d="M21.9061 15.2776H9.18281L9.46688 16.6664H21.117C21.7854 16.6664 22.2809 17.2872 22.1327 17.939L21.8933 18.9926C22.7045 19.3864 23.2639 20.218 23.2639 21.1803C23.2639 22.5346 22.1563 23.6302 20.7976 23.6106C19.5032 23.592 18.4386 22.5416 18.4037 21.2475C18.3846 20.5406 18.6678 19.8999 19.133 19.4442H10.0337C10.4841 19.8854 10.7639 20.5 10.7639 21.1803C10.7639 22.5611 9.6125 23.673 8.21745 23.6082C6.97873 23.5507 5.97131 22.5498 5.90621 21.3115C5.85595 20.3551 6.35916 19.5122 7.1237 19.0725L4.07478 4.16645H1.04167C0.466363 4.16645 0 3.70009 0 3.12478V2.43034C0 1.85503 0.466363 1.38867 1.04167 1.38867H5.49171C5.98654 1.38867 6.41306 1.73681 6.51224 2.22157L6.91007 4.16645H23.9579C24.6263 4.16645 25.1218 4.78715 24.9737 5.43898L22.9219 14.4668C22.8141 14.941 22.3925 15.2776 21.9061 15.2776ZM17.4926 9.722H15.625V7.11784C15.625 6.83021 15.3918 6.59701 15.1042 6.59701H14.0625C13.7749 6.59701 13.5417 6.83021 13.5417 7.11784V9.722H11.6741C11.2101 9.722 10.9777 10.283 11.3058 10.6111L14.2151 13.5204C14.4184 13.7237 14.7482 13.7237 14.9516 13.5204L17.8609 10.6111C18.189 10.283 17.9566 9.722 17.4926 9.722Z"/>
</svg>
