<svg viewBox="0 0 25 24" xmlns="http://www.w3.org/2000/svg">
<path fill="currentColor" d="M4.55088 7.50367C5.35088 9.10367 8.21755 11.837 9.55088 13.0037C7.92546 11.6748 3.98627 9.21908 2.55088 9.50367C1.99496 9.61389 1.02614 10.4319 0.999272 11.0037C0.668997 11.9256 1.49882 13.7267 2.55088 15.0037C3.46794 16.1168 4.94652 17.0037 6.9987 18.0037C9.06471 18.8414 9.50871 19.5731 11 20C11.7848 15.6867 12.5 11 12.5 8.5C12.5 6 13.5527 5.68948 13.5 8.5C13.6002 8.52866 13.5 20 13.5 20L18.0509 17.5037C19.9059 16.2706 23.4364 14.2406 24.0509 13.5037C25.1314 12.2078 24.7381 9.85256 24.0509 9.50367C23.9076 9.23176 23.293 8.82399 22.0509 9.00367C20.8632 9.17547 17.8842 11.6703 16.5509 13.0037C17.8842 11.337 20.6509 7.80367 21.0509 7.00367C21.5509 6.00367 21.5509 5.50367 21.0509 4.50367C20.5509 3.50367 20.0509 3.50367 19.5509 3.50367C19.0509 3.50367 17.7747 3.67441 17.5509 3.00367C17.3664 2.45102 16.0342 1.29359 15.0509 1.00367C14.0821 0.7239 11.8565 0.675648 11.0509 1.00367C10.1247 1.38078 9.05089 2.00367 8.05089 3.00367C7.05089 4.00367 5.55088 3.50367 4.55088 3.50367C3.55088 3.50367 3.55088 5.50367 4.55088 7.50367Z" stroke="currentColor" stroke-width="0.5"/>
<path d="M13.5 17.5908V23.5H13.0404L13.5 17.5908Z" fill="currentColor"/>
<path d="M13.5 17.5908V23.5H13.0404L13.5 17.5908Z" fill="currentColor"/>
<path d="M13.5 17.5908V23.5H13.0404L13.5 17.5908Z" fill="currentColor"/>
<path d="M13.5 17.5908V23.5H13.0404L13.5 17.5908Z" fill="currentColor"/>
<path d="M13.5 17.5908V23.5H13.0404L13.5 17.5908Z" stroke="currentColor"/>
</svg>
